<mxfile host="65bd71144e">
    <diagram id="6SzMH19kd8HmMJxXm27O" name="ex1">
        <mxGraphModel dx="1128" dy="1822" grid="1" gridSize="10" guides="1" tooltips="1" connect="1" arrows="1" fold="1" page="1" pageScale="1" pageWidth="850" pageHeight="1100" math="0" shadow="0">
            <root>
                <mxCell id="0"/>
                <mxCell id="1" parent="0"/>
                <mxCell id="6" value="books&lt;span style=&quot;color: rgba(0 , 0 , 0 , 0) ; font-family: monospace ; font-size: 0px&quot;&gt;%3CmxGraphModel%3E%3Croot%3E%3CmxCell%20id%3D%220%22%2F%3E%3CmxCell%20id%3D%221%22%20parent%3D%220%22%2F%3E%3CmxCell%20id%3D%222%22%20value%3D%22%22%20style%3D%22whiteSpace%3Dwrap%3Bhtml%3D1%3Bshape%3Dmxgraph.basic.cloud_callout%22%20vertex%3D%221%22%20parent%3D%221%22%3E%3CmxGeometry%20x%3D%22260%22%20y%3D%22140%22%20width%3D%22190%22%20height%3D%22190%22%20as%3D%22geometry%22%2F%3E%3C%2FmxCell%3E%3C%2Froot%3E%3C%2FmxGraphModel%3E&lt;/span&gt;" style="shape=cloud;whiteSpace=wrap;html=1;fontSize=31;" parent="1" vertex="1">
                    <mxGeometry x="330" y="170" width="250" height="120" as="geometry"/>
                </mxCell>
                <mxCell id="7" value="user" style="shape=cloud;whiteSpace=wrap;html=1;fontSize=31;" parent="1" vertex="1">
                    <mxGeometry x="350" y="-150" width="250" height="120" as="geometry"/>
                </mxCell>
                <mxCell id="8" value="date of reading" style="shape=cloud;whiteSpace=wrap;html=1;fontSize=31;" parent="1" vertex="1">
                    <mxGeometry x="40" y="300" width="250" height="120" as="geometry"/>
                </mxCell>
                <mxCell id="9" value="&lt;font style=&quot;font-size: 27px&quot;&gt;date of bought&lt;/font&gt;" style="shape=cloud;whiteSpace=wrap;html=1;fontSize=31;" parent="1" vertex="1">
                    <mxGeometry x="640" y="300" width="250" height="120" as="geometry"/>
                </mxCell>
                <mxCell id="10" value="library" style="shape=cloud;whiteSpace=wrap;html=1;fontSize=31;" parent="1" vertex="1">
                    <mxGeometry x="330" width="250" height="120" as="geometry"/>
                </mxCell>
            </root>
        </mxGraphModel>
    </diagram>
    <diagram id="3-Qb-zBULExZD2nU3DXz" name="ex1-1">
        <mxGraphModel dx="1128" dy="722" grid="1" gridSize="10" guides="1" tooltips="1" connect="1" arrows="1" fold="1" page="1" pageScale="1" pageWidth="850" pageHeight="1100" math="0" shadow="0">
            <root>
                <mxCell id="S-4-cQ8X5B-E_Jt81fGK-0"/>
                <mxCell id="S-4-cQ8X5B-E_Jt81fGK-1" parent="S-4-cQ8X5B-E_Jt81fGK-0"/>
                <mxCell id="0ALku28VZXcMweNoghFE-4" value="" style="edgeStyle=none;html=1;fontSize=27;" parent="S-4-cQ8X5B-E_Jt81fGK-1" source="ckWOrV6D-hDep8_sE5MS-0" target="bIDIwp0fXXVHczZN9h8O-6" edge="1">
                    <mxGeometry relative="1" as="geometry"/>
                </mxCell>
                <mxCell id="0ALku28VZXcMweNoghFE-5" value="" style="edgeStyle=none;html=1;fontSize=27;" parent="S-4-cQ8X5B-E_Jt81fGK-1" source="ckWOrV6D-hDep8_sE5MS-0" target="0ALku28VZXcMweNoghFE-0" edge="1">
                    <mxGeometry relative="1" as="geometry"/>
                </mxCell>
                <mxCell id="ckWOrV6D-hDep8_sE5MS-0" value="library" style="html=1;dashed=0;whitespace=wrap;fontSize=27;" parent="S-4-cQ8X5B-E_Jt81fGK-1" vertex="1">
                    <mxGeometry x="370" y="220" width="100" height="50" as="geometry"/>
                </mxCell>
                <mxCell id="ckWOrV6D-hDep8_sE5MS-1" value="title" style="shape=ellipse;html=1;dashed=0;whitespace=wrap;perimeter=ellipsePerimeter;fontSize=27;" parent="S-4-cQ8X5B-E_Jt81fGK-1" vertex="1">
                    <mxGeometry x="60" y="560" width="100" height="50" as="geometry"/>
                </mxCell>
                <mxCell id="ckWOrV6D-hDep8_sE5MS-2" value="author" style="shape=ellipse;html=1;dashed=0;whitespace=wrap;perimeter=ellipsePerimeter;fontSize=27;" parent="S-4-cQ8X5B-E_Jt81fGK-1" vertex="1">
                    <mxGeometry x="670" y="425" width="100" height="50" as="geometry"/>
                </mxCell>
                <mxCell id="ckWOrV6D-hDep8_sE5MS-3" value="chapter" style="shape=ellipse;html=1;dashed=0;whitespace=wrap;perimeter=ellipsePerimeter;fontSize=27;" parent="S-4-cQ8X5B-E_Jt81fGK-1" vertex="1">
                    <mxGeometry x="710" y="535" width="100" height="50" as="geometry"/>
                </mxCell>
                <mxCell id="0ALku28VZXcMweNoghFE-6" value="" style="edgeStyle=none;html=1;fontSize=27;" parent="S-4-cQ8X5B-E_Jt81fGK-1" source="bIDIwp0fXXVHczZN9h8O-0" target="0ALku28VZXcMweNoghFE-0" edge="1">
                    <mxGeometry relative="1" as="geometry"/>
                </mxCell>
                <mxCell id="0ALku28VZXcMweNoghFE-7" value="" style="edgeStyle=none;html=1;fontSize=27;" parent="S-4-cQ8X5B-E_Jt81fGK-1" source="bIDIwp0fXXVHczZN9h8O-0" target="ckWOrV6D-hDep8_sE5MS-2" edge="1">
                    <mxGeometry relative="1" as="geometry"/>
                </mxCell>
                <mxCell id="0ALku28VZXcMweNoghFE-8" value="" style="edgeStyle=none;html=1;fontSize=27;" parent="S-4-cQ8X5B-E_Jt81fGK-1" source="bIDIwp0fXXVHczZN9h8O-0" target="ckWOrV6D-hDep8_sE5MS-1" edge="1">
                    <mxGeometry relative="1" as="geometry"/>
                </mxCell>
                <mxCell id="0ALku28VZXcMweNoghFE-9" style="edgeStyle=none;html=1;entryX=0.317;entryY=0.113;entryDx=0;entryDy=0;fontSize=27;entryPerimeter=0;" parent="S-4-cQ8X5B-E_Jt81fGK-1" source="bIDIwp0fXXVHczZN9h8O-0" target="ckWOrV6D-hDep8_sE5MS-3" edge="1">
                    <mxGeometry relative="1" as="geometry"/>
                </mxCell>
                <mxCell id="SaA0K9wlF-9XS0AX3Oub-3" style="edgeStyle=none;html=1;fontSize=16;" parent="S-4-cQ8X5B-E_Jt81fGK-1" source="bIDIwp0fXXVHczZN9h8O-0" target="SaA0K9wlF-9XS0AX3Oub-0" edge="1">
                    <mxGeometry relative="1" as="geometry"/>
                </mxCell>
                <mxCell id="SaA0K9wlF-9XS0AX3Oub-5" style="edgeStyle=none;html=1;entryX=1;entryY=0.5;entryDx=0;entryDy=0;fontSize=16;" parent="S-4-cQ8X5B-E_Jt81fGK-1" source="bIDIwp0fXXVHczZN9h8O-0" target="SaA0K9wlF-9XS0AX3Oub-4" edge="1">
                    <mxGeometry relative="1" as="geometry"/>
                </mxCell>
                <mxCell id="bIDIwp0fXXVHczZN9h8O-0" value="&lt;font style=&quot;font-size: 27px&quot;&gt;book&lt;/font&gt;" style="rounded=0;whiteSpace=wrap;html=1;" parent="S-4-cQ8X5B-E_Jt81fGK-1" vertex="1">
                    <mxGeometry x="365" y="420" width="110" height="60" as="geometry"/>
                </mxCell>
                <mxCell id="bIDIwp0fXXVHczZN9h8O-7" value="" style="edgeStyle=none;html=1;fontSize=30;" parent="S-4-cQ8X5B-E_Jt81fGK-1" source="bIDIwp0fXXVHczZN9h8O-1" target="bIDIwp0fXXVHczZN9h8O-6" edge="1">
                    <mxGeometry relative="1" as="geometry"/>
                </mxCell>
                <mxCell id="bIDIwp0fXXVHczZN9h8O-1" value="&lt;font style=&quot;font-size: 30px&quot;&gt;user&lt;/font&gt;" style="rounded=0;whiteSpace=wrap;html=1;" parent="S-4-cQ8X5B-E_Jt81fGK-1" vertex="1">
                    <mxGeometry x="360" y="10" width="120" height="60" as="geometry"/>
                </mxCell>
                <mxCell id="SaA0K9wlF-9XS0AX3Oub-8" style="edgeStyle=none;html=1;entryX=0;entryY=0.5;entryDx=0;entryDy=0;fontSize=16;endArrow=ERoneToMany;endFill=0;" parent="S-4-cQ8X5B-E_Jt81fGK-1" source="bIDIwp0fXXVHczZN9h8O-2" target="bIDIwp0fXXVHczZN9h8O-1" edge="1">
                    <mxGeometry relative="1" as="geometry"/>
                </mxCell>
                <mxCell id="bIDIwp0fXXVHczZN9h8O-2" value="user-id" style="ellipse;whiteSpace=wrap;html=1;fontSize=30;" parent="S-4-cQ8X5B-E_Jt81fGK-1" vertex="1">
                    <mxGeometry x="90" y="70" width="120" height="80" as="geometry"/>
                </mxCell>
                <mxCell id="bIDIwp0fXXVHczZN9h8O-5" style="edgeStyle=none;html=1;entryX=1;entryY=0.5;entryDx=0;entryDy=0;fontSize=30;" parent="S-4-cQ8X5B-E_Jt81fGK-1" source="bIDIwp0fXXVHczZN9h8O-3" target="bIDIwp0fXXVHczZN9h8O-1" edge="1">
                    <mxGeometry relative="1" as="geometry"/>
                </mxCell>
                <mxCell id="bIDIwp0fXXVHczZN9h8O-3" value="age" style="ellipse;whiteSpace=wrap;html=1;fontSize=30;" parent="S-4-cQ8X5B-E_Jt81fGK-1" vertex="1">
                    <mxGeometry x="610" y="80" width="120" height="80" as="geometry"/>
                </mxCell>
                <mxCell id="bIDIwp0fXXVHczZN9h8O-6" value="go" style="rhombus;whiteSpace=wrap;html=1;fontSize=30;" parent="S-4-cQ8X5B-E_Jt81fGK-1" vertex="1">
                    <mxGeometry x="342.5" y="110" width="155" height="80" as="geometry"/>
                </mxCell>
                <mxCell id="0ALku28VZXcMweNoghFE-0" value="choose" style="rhombus;whiteSpace=wrap;html=1;fontSize=30;" parent="S-4-cQ8X5B-E_Jt81fGK-1" vertex="1">
                    <mxGeometry x="351.25" y="300" width="137.5" height="80" as="geometry"/>
                </mxCell>
                <mxCell id="SaA0K9wlF-9XS0AX3Oub-0" value="&lt;font style=&quot;font-size: 16px&quot;&gt;date of reading&lt;/font&gt;" style="ellipse;whiteSpace=wrap;html=1;fontSize=13;strokeWidth=1;" parent="S-4-cQ8X5B-E_Jt81fGK-1" vertex="1">
                    <mxGeometry x="40" y="410" width="120" height="80" as="geometry"/>
                </mxCell>
                <mxCell id="SaA0K9wlF-9XS0AX3Oub-4" value="&lt;font style=&quot;font-size: 16px&quot;&gt;date of buy&lt;/font&gt;" style="ellipse;whiteSpace=wrap;html=1;fontSize=13;strokeWidth=1;" parent="S-4-cQ8X5B-E_Jt81fGK-1" vertex="1">
                    <mxGeometry x="120" y="300" width="120" height="80" as="geometry"/>
                </mxCell>
            </root>
        </mxGraphModel>
    </diagram>
    <diagram id="aPk1NR_Q0MTg4CNhAxBw" name="ex-1-2">
        <mxGraphModel dx="1978" dy="722" grid="1" gridSize="10" guides="1" tooltips="1" connect="1" arrows="1" fold="1" page="1" pageScale="1" pageWidth="850" pageHeight="1100" math="0" shadow="0">
            <root>
                <mxCell id="-HdZSj_Z6cFdagY1nWEP-0"/>
                <mxCell id="-HdZSj_Z6cFdagY1nWEP-1" parent="-HdZSj_Z6cFdagY1nWEP-0"/>
                <mxCell id="-HdZSj_Z6cFdagY1nWEP-2" value="user" style="swimlane;childLayout=stackLayout;horizontal=1;startSize=30;horizontalStack=0;rounded=1;fontSize=22;fontStyle=0;strokeWidth=2;resizeParent=0;resizeLast=1;shadow=0;dashed=0;align=center;" parent="-HdZSj_Z6cFdagY1nWEP-1" vertex="1">
                    <mxGeometry y="340" width="160" height="210" as="geometry"/>
                </mxCell>
                <mxCell id="-HdZSj_Z6cFdagY1nWEP-3" value="id:int&#10;age:int&#10;f_name:string&#10;l_name:string" style="align=left;strokeColor=none;fillColor=none;spacingLeft=4;fontSize=22;verticalAlign=top;resizable=0;rotatable=0;part=1;" parent="-HdZSj_Z6cFdagY1nWEP-2" vertex="1">
                    <mxGeometry y="30" width="160" height="180" as="geometry"/>
                </mxCell>
                <mxCell id="-HdZSj_Z6cFdagY1nWEP-4" value="book" style="swimlane;childLayout=stackLayout;horizontal=1;startSize=30;horizontalStack=0;rounded=1;fontSize=22;fontStyle=0;strokeWidth=3;resizeParent=0;resizeLast=1;shadow=0;dashed=0;align=center;" parent="-HdZSj_Z6cFdagY1nWEP-1" vertex="1">
                    <mxGeometry x="425" y="585" width="250" height="250" as="geometry"/>
                </mxCell>
                <mxCell id="-HdZSj_Z6cFdagY1nWEP-5" value="id:int&#10;title:string&#10;author:srting&#10;chapter:int&#10;start_reading:varchar&#10;end_reading:varchar" style="align=left;strokeColor=none;fillColor=none;spacingLeft=4;fontSize=22;verticalAlign=top;resizable=0;rotatable=0;part=1;" parent="-HdZSj_Z6cFdagY1nWEP-4" vertex="1">
                    <mxGeometry y="30" width="250" height="220" as="geometry"/>
                </mxCell>
                <mxCell id="4qoUaq2Q3n68-tu41sRx-0" value="library" style="swimlane;childLayout=stackLayout;horizontal=1;startSize=30;horizontalStack=0;rounded=1;fontSize=22;fontStyle=0;strokeWidth=2;resizeParent=0;resizeLast=1;shadow=0;dashed=0;align=center;" parent="-HdZSj_Z6cFdagY1nWEP-1" vertex="1">
                    <mxGeometry x="360" y="290" width="200" height="150" as="geometry"/>
                </mxCell>
                <mxCell id="4qoUaq2Q3n68-tu41sRx-1" value="id:int&#10;address:varchar" style="align=left;strokeColor=none;fillColor=none;spacingLeft=4;fontSize=22;verticalAlign=top;resizable=0;rotatable=0;part=1;" parent="4qoUaq2Q3n68-tu41sRx-0" vertex="1">
                    <mxGeometry y="30" width="200" height="120" as="geometry"/>
                </mxCell>
                <mxCell id="lKVOE3lokLs4mYoEOExO-11" style="edgeStyle=elbowEdgeStyle;html=1;entryX=0;entryY=0.25;entryDx=0;entryDy=0;fontSize=22;endArrow=none;endFill=0;startArrow=none;startFill=0;" edge="1" parent="-HdZSj_Z6cFdagY1nWEP-1" source="-HdZSj_Z6cFdagY1nWEP-3" target="4qoUaq2Q3n68-tu41sRx-1">
                    <mxGeometry relative="1" as="geometry">
                        <Array as="points">
                            <mxPoint x="230" y="400"/>
                        </Array>
                    </mxGeometry>
                </mxCell>
                <mxCell id="3ZcB008O3wDgygurkRRX-0" style="edgeStyle=elbowEdgeStyle;html=1;fontSize=22;startArrow=baseDash;startFill=0;endArrow=ERmany;endFill=0;" edge="1" parent="-HdZSj_Z6cFdagY1nWEP-1" source="-HdZSj_Z6cFdagY1nWEP-3">
                    <mxGeometry relative="1" as="geometry">
                        <mxPoint x="420" y="614" as="targetPoint"/>
                    </mxGeometry>
                </mxCell>
            </root>
        </mxGraphModel>
    </diagram>
    <diagram id="I-3gYRyhRZz83_xiae4H" name="ex1-4">
        <mxGraphModel dx="1128" dy="722" grid="1" gridSize="10" guides="1" tooltips="1" connect="1" arrows="1" fold="1" page="1" pageScale="1" pageWidth="850" pageHeight="1100" math="0" shadow="0">
            <root>
                <mxCell id="QOwm_QuZSGuAWO44aJiA-0"/>
                <mxCell id="QOwm_QuZSGuAWO44aJiA-1" parent="QOwm_QuZSGuAWO44aJiA-0"/>
                <mxCell id="_SeWal_YC3LiTuTZYhMR-0" value="user" style="swimlane;childLayout=stackLayout;horizontal=1;startSize=30;horizontalStack=0;rounded=1;fontSize=22;fontStyle=0;strokeWidth=2;resizeParent=0;resizeLast=1;shadow=0;dashed=0;align=center;" vertex="1" parent="QOwm_QuZSGuAWO44aJiA-1">
                    <mxGeometry x="120" y="140" width="160" height="210" as="geometry"/>
                </mxCell>
                <mxCell id="_SeWal_YC3LiTuTZYhMR-1" value="id:int&#10;age:int&#10;f_name:string&#10;l_name:string" style="align=left;strokeColor=none;fillColor=none;spacingLeft=4;fontSize=22;verticalAlign=top;resizable=0;rotatable=0;part=1;" vertex="1" parent="_SeWal_YC3LiTuTZYhMR-0">
                    <mxGeometry y="30" width="160" height="180" as="geometry"/>
                </mxCell>
                <mxCell id="_SeWal_YC3LiTuTZYhMR-2" value="book" style="swimlane;childLayout=stackLayout;horizontal=1;startSize=30;horizontalStack=0;rounded=1;fontSize=22;fontStyle=0;strokeWidth=3;resizeParent=0;resizeLast=1;shadow=0;dashed=0;align=center;" vertex="1" parent="QOwm_QuZSGuAWO44aJiA-1">
                    <mxGeometry x="545" y="385" width="250" height="250" as="geometry"/>
                </mxCell>
                <mxCell id="_SeWal_YC3LiTuTZYhMR-3" value="id:int&#10;title:string&#10;fk_author:srting&#10;chapter:int&#10;start_reading:varchar&#10;end_reading:varchar" style="align=left;strokeColor=none;fillColor=none;spacingLeft=4;fontSize=22;verticalAlign=top;resizable=0;rotatable=0;part=1;" vertex="1" parent="_SeWal_YC3LiTuTZYhMR-2">
                    <mxGeometry y="30" width="250" height="220" as="geometry"/>
                </mxCell>
                <mxCell id="_SeWal_YC3LiTuTZYhMR-4" value="library" style="swimlane;childLayout=stackLayout;horizontal=1;startSize=30;horizontalStack=0;rounded=1;fontSize=22;fontStyle=0;strokeWidth=2;resizeParent=0;resizeLast=1;shadow=0;dashed=0;align=center;" vertex="1" parent="QOwm_QuZSGuAWO44aJiA-1">
                    <mxGeometry x="480" y="90" width="200" height="150" as="geometry"/>
                </mxCell>
                <mxCell id="_SeWal_YC3LiTuTZYhMR-5" value="id:int&#10;address:varchar" style="align=left;strokeColor=none;fillColor=none;spacingLeft=4;fontSize=22;verticalAlign=top;resizable=0;rotatable=0;part=1;" vertex="1" parent="_SeWal_YC3LiTuTZYhMR-4">
                    <mxGeometry y="30" width="200" height="120" as="geometry"/>
                </mxCell>
                <mxCell id="_SeWal_YC3LiTuTZYhMR-6" value="author" style="swimlane;childLayout=stackLayout;horizontal=1;startSize=30;horizontalStack=0;rounded=1;fontSize=22;fontStyle=0;strokeWidth=3;resizeParent=0;resizeLast=1;shadow=0;dashed=0;align=center;" vertex="1" parent="QOwm_QuZSGuAWO44aJiA-1">
                    <mxGeometry x="120" y="440" width="250" height="160" as="geometry"/>
                </mxCell>
                <mxCell id="_SeWal_YC3LiTuTZYhMR-7" value="id:int&#10;f_name:string&#10;l_name:string&#10;adresse:varchar&#10;&#10;" style="align=left;strokeColor=none;fillColor=none;spacingLeft=4;fontSize=22;verticalAlign=top;resizable=0;rotatable=0;part=1;" vertex="1" parent="_SeWal_YC3LiTuTZYhMR-6">
                    <mxGeometry y="30" width="250" height="130" as="geometry"/>
                </mxCell>
                <mxCell id="_SeWal_YC3LiTuTZYhMR-8" style="edgeStyle=elbowEdgeStyle;html=1;entryX=0;entryY=0.25;entryDx=0;entryDy=0;fontSize=22;endArrow=none;endFill=0;startArrow=ERmany;startFill=0;" edge="1" source="_SeWal_YC3LiTuTZYhMR-1" target="_SeWal_YC3LiTuTZYhMR-5" parent="QOwm_QuZSGuAWO44aJiA-1">
                    <mxGeometry relative="1" as="geometry">
                        <Array as="points">
                            <mxPoint x="350" y="200"/>
                        </Array>
                    </mxGeometry>
                </mxCell>
                <mxCell id="_SeWal_YC3LiTuTZYhMR-9" style="edgeStyle=elbowEdgeStyle;html=1;entryX=-0.017;entryY=0.325;entryDx=0;entryDy=0;entryPerimeter=0;fontSize=22;startArrow=ERmany;startFill=0;endArrow=baseDash;endFill=0;" edge="1" source="_SeWal_YC3LiTuTZYhMR-7" target="_SeWal_YC3LiTuTZYhMR-3" parent="QOwm_QuZSGuAWO44aJiA-1">
                    <mxGeometry relative="1" as="geometry"/>
                </mxCell>
                <mxCell id="_SeWal_YC3LiTuTZYhMR-10" style="edgeStyle=elbowEdgeStyle;html=1;fontSize=22;startArrow=baseDash;startFill=0;endArrow=ERmany;endFill=0;" edge="1" source="_SeWal_YC3LiTuTZYhMR-1" parent="QOwm_QuZSGuAWO44aJiA-1">
                    <mxGeometry relative="1" as="geometry">
                        <mxPoint x="540" y="414" as="targetPoint"/>
                    </mxGeometry>
                </mxCell>
            </root>
        </mxGraphModel>
    </diagram>
</mxfile>